<?xml version="1.0" encoding="utf-8"?>
<!-- Generator: Adobe Illustrator 16.0.3, SVG Export Plug-In . SVG Version: 6.00 Build 0)  -->
<!DOCTYPE svg PUBLIC "-//W3C//DTD SVG 1.1//EN" "http://www.w3.org/Graphics/SVG/1.1/DTD/svg11.dtd">
<svg version="1.1"
	 id="Switzerland" xmlns:inkscape="http://www.inkscape.org/namespaces/inkscape" xmlns:svg="http://www.w3.org/2000/svg" xmlns:dc="http://purl.org/dc/elements/1.1/" xmlns:sodipodi="http://sodipodi.sourceforge.net/DTD/sodipodi-0.dtd" xmlns:rdf="http://www.w3.org/1999/02/22-rdf-syntax-ns#" xmlns:cc="http://creativecommons.org/ns#" inkscape:version="0.91 r13725" sodipodi:docname="Switzerland_adm_location_map.svg"
	 xmlns="http://www.w3.org/2000/svg" xmlns:xlink="http://www.w3.org/1999/xlink" x="0px" y="0px" width="1248.75px"
	 height="799.607px" viewBox="0 0 1248.75 799.607" enable-background="new 0 0 1248.75 799.607" xml:space="preserve">
<path id="path5" inkscape:connector-curvature="0" fill="none" stroke="#797979" stroke-miterlimit="10" d="M826.523,742.632
	l3.229-0.022l0.75-7.063l-4.75-0.487l-1.5,7.307L826.523,742.632L826.523,742.632z M761.599,46.401l-1.104,0.113l-2.405,0.247
	l-2.543-1.218l-1.947-0.133l-5.349,2.41l0.14-2.083v-3.085l-2.724-3.084l0.703-2.653l5.537,0.687l4.482-1.028l1.407,3.681
	l2.847,3.771L761.599,46.401L761.599,46.401z M971.025,304.474l-1.346-2.621l-0.373-0.737l-0.504-0.97l-0.168-0.324l-0.308-0.602
	l0.13-0.37l0.36-1.027l0.122-0.356l2.069-2.242l6.52-4.709l2.711-2.712l0.681-2.086l0.19-0.58l0.023-0.323l0.028-0.335l0.168-2.197
	l-2.282-9.229l-1.093-4.387l-0.44-1.003l-3.918-9.296l-0.198-0.569l-0.153-0.435l-0.106-0.625l-0.617-3.683l0.084-5.145
	l4.307-15.958l7.521-16.739l3.299-3.727l-0.154-0.646l0.826-0.102l3-7.678l1.307-1.773l0.404-0.547l4.551-3.102l2.192-3.36
	l0.548-3.304l2.392-5.635l5.139-8.615l0.678-1.135c0,0,5.536-0.1,7.295-0.442c1.76-0.343,3.428-1.117,4.834-3.084
	c1.407-1.968,2.111-4.799,0-6.766c-2.108-1.969-4.218-2.438-4.218-2.438l0.948-4.735l-1.213-7.208l-0.224-1.306l0.588-3.403
	l1.283-2.365l0.328-0.603l-0.824-1.004l-1.963-2.389l-1.756-0.167l-3.566-0.804l-3.854-3.794l-0.932-0.078l-1.544,1.496
	l-1.473,0.211l-2.26-2.354l-1.826-3.917l-2.832-3.169l-1.961-2.596l-0.491,0.073l-1.435-1.373l-0.728-0.701l-1.327,3.414
	l-2.185,2.064l-2.748,1.238l-9.606,0.803l-4.283-1.483l-1.138-1.54l-6.178-3.827l-3.733-3.348l-0.597-0.523l-2.504-0.502
	l1.273-1.038l0.245-1.563l-0.237-0.355l-0.617-0.915l-3.102-1.854l-1.488-0.901l-5.56-4.944l-1.87-0.972l-2.384-3.258l-0.42-2.566
	l0.841-4.418l-1.169-2.455l-14.148-7.99l-6.956-6.239l-7.086-4.764l-5.33-1.908l-3.566-2.132l-3.924-1.205l-4.246-3.403l-5.229-1.72
	l-2.269-1.874c0,0-0.659-1.356-0.598-1.356l-4.615,1.559l-3.427-2.741l-2.792-2.271l-2.329-0.59l-3.935-1.596l-7.295-4.024
	L852.74,50.45l-4.834-2.057h-5.274l-10.021,6.169l-9.759,5.052c0,0-9.055,3.084-11.87,3.338c-2.813,0.254-6.944-3.681-6.944-3.681
	l-2.723-7.451l-3.869-1.028l1.055-2.742l-1.76-2.652l5.629-0.687l-0.703-4.456h-5.979l-2.723-2.652l-4.224,1.371l-0.703-4.112
	l-2.371-2.399l1.315-2.31l-3.778-5.143l-2.813,3.771l2.11,2.996l-2.463,0.343l-4.834,4.798l0.703,3.339l5.892,0.686l2.464,4.108
	l-1.761,1.028l-1.407,4.367l-0.11,1.547l-2.804-0.547l-4.543-3.359l-3.459-0.892L765.495,46l-2.233,0.229l0.426-2.207l1.055-8.479
	l-4.13-1.028l-2.463-3.339v-3.77l3.69-2.507l4.661-1.86l-5.89-6.169l-5.276,2.742l-4.225-1.968l-0.258-4.455l-0.704-3.771
	l-4.481-2.996l-1.76-3.77l-2.461,2.398l-0.354,4.024l1.407,4.113l-1.055,3.681l-6.594,3.771v-3.428l-2.111-1.281l1.407-3.428
	l-1.759-3.427l0.352-4.709l-2.723-2.399l-7.035,0.344L719.554,0l-1.407,5.396l2.815,1.714l0.702,3.681l-2.813,0.687l-4.834-1.028
	l-5.277,1.371l-3.074,2.399l-2.463-1.715l-6.239,2.058l-4.224,4.366l-2.371,3.428l-2.463,5.052l0.704,3.084l-0.351,2.996
	l-4.574,4.456l-5.538,1.027l-3.517,4.366l3.166,1.713l2.108,3.682l-1.055,2.742l-3.519,1.028l1.406,4.023l2.814-0.686l2.813,2.057
	l3.778,3.085l3.87-0.343v4.023l5.186,2.057l-0.703-3.428l3.166,1.027c0,0,2.724-1.027,4.834-1.371
	c2.11-0.343,6.593,1.371,6.593,1.371l-0.703-6.08l9.408-3.681l1.055,2.652l3.166,0.343l3.074-2.996l5.551-0.748l0.108,1.295
	l0.023,0.291l2.039,4.955l1.356,3.302l-0.68,2.132l-1.633,1.238l-2.322-0.211l0.748-2.769l-0.213-2.188l-2.84,2.366l-0.75,2.956
	l2.313,9.105l-0.571,2.499l-2.115,3.828l-0.107,1.405l-0.1,0.981l-1.24,0.998l-2.162-0.769l-6.11-1.895l3.166-5.737l-4.572-4.113
	l-3.428-0.342l-0.703-2.399l-4.834-0.254l-1.407,2.653l-2.11,3.084l-7.297,1.713l-2.11,4.023l-3.427,2.057l2.724,4.366l4.926-1.37
	l2.213,3.157l-2.542,0.751l-0.732,0.212l-3.306,0.972l-5.062,1.261l-2.773,0.256l-2.092,1.082l-1.664,0.135l-0.688-0.213
	l-3.804-1.204l-1.039-0.523l-2.45-1.396l-1.48,0.145l-3.139,3.213l-3.224,0.647l-5.198-0.391l-5.33-1.384l-1.001-0.559l-0.68-0.367
	l-1.153-0.638l-3.771-4.753L645,85.419l-0.52-1.54l0.358-3.135l-1.451-1.887l-2.45-1.104l-4.712,0.425l-3.161-2.833l-1.314,0.138
	c0,0-0.875,0.853-1.375,1.096c-0.5,0.244-1.875,0.609-3.375,1.096c-1.5,0.487-2.625-0.608-3.5-2.923
	c-0.875-2.313-4.375-1.218-5.25-0.608c-0.875,0.608-3,3.653-3.5,4.263s-2.125,2.801-4,3.897c-1.875,1.096-6,2.436-7.625,2.679
	s-4.314,2.961-4.314,2.961l-1.428,0.979l-4.244,0.515l-1.787,1.797l-2.176,6.505l-1.17,1.05l-1.664,0.145l-3.444-1.596l-2.206-1.05
	l-1.139,0.279l-0.609,0.146l-2.383,3.213l-1.611,0.57l-0.375,0.133l-3.336,0.771l-3.474,1.217l-2.131-0.011l-2.855-2.099
	l-1.879-0.581l-2.854,0.381l-4.283,0.055l-3.398,0.034l-0.718,0.67l-1.022,2.421l-0.985,0.871l-2.03,0.257l-3.376-1.071
	l-2.756-1.831l-0.802-1.629l-0.413-2.934l-0.16-1.126l-0.344-2.455l-0.1-0.692l-1.702-3.425l-0.771-0.615l-0.551-0.167l-2.359-0.736
	l-2.787-0.268l-10.209,2.12l-3.016-1.35L514.68,88.4l-2.359,1.194l-0.222,1.474l-1.092,2.8l-2.475,3.002l-1.513,1.83l-1.526,1.071
	l-2.03,0.669l-1.97,0.615l-0.199,0.065l-3.804,1.162l-1.436,0.323l-0.396,0.089l-11.264,2.544l-1.244,0.714l-4.521,3.114
	l-3.864,0.704l-2.527-0.726l-1.962-1.753l-1.841-1.649l-2.443-2.188l-1.655-1.482l-1.14-1.017l-0.519-0.881l-0.481-0.814
	l-0.681-0.565l1.983-1.532l4.25,0.73l1.75-1.949l3.75,0.244c0,0,2.5-1.218,2.75-2.679c0.25-1.462-0.5-3.166-0.5-3.166l-2.25-3.167
	l4-2.924l3.25-3.166l-3.75,0.73l-5.5,2.923l-5.25-0.974l-5.5,7.063l-5.5,0.731l-0.75-4.142l-4.25-0.73l-1.25,5.602l-3.5-0.486
	l-2.5,0.974l-1.75,4.627l-4,1.218l-6,6.333h-3l-3.25,3.166l1.25,2.923h3l2.5-1.218l2.75,2.679l-2,3.897l-2.5-0.487h-4.25l2.5,1.705
	l0.25,2.679l1.25,3.41l-1.75,1.219l-2.25,2.679l-2.25,2.923l-5,0.487l-10.75-6.82l-3,5.602l8.75,3.653l-2.25,4.628l-4.25,1.461
	l-1.75,3.41l-4.75,5.115c0,0-1.5,0.975-3.5,1.218s-2.5,2.192-2.5,2.192l-2.75-1.705h-6c0,0-1.75,0-3-1.705s-4.25-0.73-4.25-0.73
	l-7,1.219c0,0-3.75,1.705-5.25,1.705s-2.5,1.704-4.25,2.191s-6,3.41-6,3.41l0.25-2.679l-3-0.976c0,0,0.25-0.729,0.25-2.191
	s-2-2.68-3.75-2.192s-3.5,1.705-3.5,1.705h-4.25l-0.25-1.461l-2.75-1.218l-4.25-0.487l2-6.089l0.75-5.845l2.25-4.629l1.5-3.409
	l-9.25,0.729l-5.25-4.871h-3.5l-2.5,2.923l-5.75,0.243c0,0-0.75,0.244-3.5,1.705s-3.5-1.461-3.5-1.461l-4-0.487l-2.5-1.218
	l-3.25-0.243l-4.501-1.705l-4.75,2.192l-3,2.192v6.333l3,2.679l-0.25,3.167l0.5,2.436c0,0-3,2.68-4.75,2.68s-4.5,1.218-4.5,1.218
	l-0.5,2.679l-1.75,2.192l-4.75,0.244l-0.25,7.307l-1.5,3.897l-5.25,1.218l-1.25,3.653c0,0,0,2.191-0.75,3.167
	c-0.75,0.974-4.25,1.704-4.25,1.704l-3,3.167l-0.5,3.168l-1.25,3.165c0,0,3-0.729,4.5-1.218c1.5-0.487,2-1.218,4-0.244
	c2,0.976,1.75,1.705,4.25,0.976c2.5-0.731,2.75-0.731,4.5-0.731s8.5-0.974,8.5-0.974l2.75-1.461h4.25l4.25-3.167l5.25,0.975
	l1.251,2.68l3.25,0.729l1.25,4.384l2.75,4.142l-2,4.141l-2.25,2.679h-6.501l-2.5,2.922l-2.5,4.629l0.75,2.436l-3.25,1.949
	l-3.25,0.729l-2.75,1.705l-6.5-0.244l-1.5,2.192l1.75,4.141v5.847l-1,2.679l2.25,2.192v2.679l-3,1.461l-0.75,2.923l-3,0.73
	l-1.5,3.167l-4.25,1.461l-2.75,2.923l-6,3.896l-2,4.871l-2.617,2.321L245,253.532l-0.25,3.166l3.337,0.072l-1.837,4.312l-7,5.358
	l-7,4.871l-5.75,3.41l-4.5,0.486l-5.5,5.115l1.75,1.705l-0.25,5.846h-6.5l-3.25,1.705l-1,4.141l-4.75,3.409l6.5,2.68l0.75,3.896
	l-3,1.461l-2.5,3.897h-4l-6.75,4.384l-3.5,5.845l-0.25,2.437v2.436c0,0-4.75,3.653-6,4.385c-1.25,0.73-6.5,0.975-6.5,0.975
	l-5.5,2.922L153,339.509l-3-2.68l-6.75,7.552l-3,5.114l-6.5,5.603l3,4.384l5,8.769l-1.5,17.78l-5.5,9.499c0,0,0.5,3.897-1.25,5.846
	s0.25,3.41,2.25,4.871s5,3.167,5,3.167l-2.75,7.794l-3.25,4.142l-3.5,3.167c0,0-6.5,2.192-7.75,2.679
	c-1.25,0.487-2.25,2.192-2.5,4.141s-3.25,3.409-3.25,3.409l-27,15.102l-3.25,2.922l-0.75,3.167L76,466.407l-13,10.474l-1.25,2.923
	l-12,8.038l-5,6.089l5.25,7.063l7,7.309l-4.75,6.332l-2.5-0.976l-5,6.091L40,532.9l-6,5.603l-0.75,4.871l2.75,2.191l0.5,3.653
	l-5.25,8.524l8.25,2.923l1.25,3.166l2.5,0.975l9.75,8.769l2-1.462l5,5.359l-8,13.396l-5.75,8.524l-1,7.551l-4.75,5.847l2.5,1.947
	l0.5,2.68l2.25,1.948l0.75,5.358l-2.25,3.653l-3.75,1.705l-4.5-2.681l-7.5,1.219l-3.25,4.384l-4-2.437l-5.25,3.41l-4.75,4.628
	l-5.5,0.731L4,646.643l6.25,3.896L8,652.975l-2.5,0.487l-5,10.717L0,667.59l4.25,5.357l4-4.871l9.5,0.243l3.25,2.437l4.5-2.192
	l1-3.652l7,0.486l2.75-0.244l4.75,2.68l4-0.242l3.25,1.461l10.5-8.28l4-0.975l1.25-7.308l11.75-9.743l4,0.731l2.5-1.949
	c0,0,4.5-1.705,5.5-2.436c1-0.731,5.75-3.896,5.75-3.896l4-6.576l-0.5-4.385h-2.75l-1.5-2.923L87,626.427l-3.25-0.486L78,614.006
	l3-4.384l-3.25-6.333L73,600.365l8.5-18.997l23.5-18.023l23.25-4.385l28-16.563l42.25,0.976l38.5,11.936l-3.5,12.421l-0.25,8.038
	c0,0-2.25,3.41-4,4.141c-1.75,0.731-5,2.437-5,2.437l4,9.012l2.25-0.486l2,2.679v2.436l4,1.705l4.5,4.142l0.25,2.68
	c0,0,1.25,0.729,3,2.19c1.75,1.462,2.5,0.488,2.5,0.488l4.5,4.384L248,624.482l-3.5,2.679l-2.5,5.358l-3,0.975l-0.75,4.142
	c0,0-1.25,1.461-1.75,2.679s-1.75,5.114-1.75,5.114l1.25,8.281l-3.25,4.87c0,0-2.25,2.925-2.5,4.386s2.25,7.551,2.25,7.551
	l2.5-0.487l1,2.437l2.25-0.731h6.25l1.75,2.193l14.25,1.705l-1,8.037l-2.75,3.409l1.75,4.385l-0.5,5.113l-2.75,2.681l-1.25,5.846
	l3.25,1.948l2.5-2.192l2.75-0.974l3.25-5.604l5.25,1.219l-1,3.166l1.5,1.948l2.436-1.752l4.314,9.546l4.75,5.603l1,3.896l2.5,3.166
	l3-0.243l1.75,5.114l3.75,4.385l-4.25,2.923l2.75,4.142l4.501,0.974l1,1.949l-0.25,6.819l1.25,5.114l6.5,4.627l0.5,4.142l2.25,2.436
	l0.5,2.923c0,0,3.75,1.949,4.75,2.924s0.75,2.436,0.75,3.652s1.25,3.897,1.25,3.897s3.25,0.243,5.75-0.976
	c2.5-1.218,3.25-4.384,3.25-4.384l7.5-2.68l3,5.115c1,1.704,6.75,2.436,6.75,2.436l-0.75-4.871l4.75-4.141l2-3.41l10.25-0.487
	l4-3.409l2.75-7.308l7.5,2.192l1.75,2.923l4.75-1.948l4.75,1.218l0.25,2.68l7.25,2.923l4.75-5.358l2.5,0.73l5.25-3.409l4.75-5.846
	l6.25-0.73l0.75-5.358l6.75-5.114l5.75-0.243l6.5,2.436v-7.308l2.25-4.384l7.75-0.976l1.75,3.654l0.5,2.923l16.25,0.243
	c0,0,3-3.166,5.75-2.192c2.75,0.976,4,3.897,4,3.897l0.75,3.896l4.75,0.731l3.75,2.679l0.25,5.847l1.75,3.409l4.25,0.486l3.75-6.089
	l5.75,0.487l5.25,4.384l3.75,3.896l5.25-3.409c0,0,4.5,1.462,5.75,1.705c1.25,0.242,6.5,1.704,6.5,1.704l3-2.191
	c0,0-3.5-4.142-2-6.576s1.75-5.846,1.75-5.846l1.25-7.55c0,0,3.5-1.705,5-3.653c1.5-1.949,3.5-6.333,3.5-6.333l15.5,0.243
	l5.75-0.243l0.766-1.461l1.234-4.872l3-0.73l0.5-7.551l5-5.358c0,0-2.5-4.141-2.5-7.062v-5.359l1.5-2.436l1.5-7.793l7.25-0.731
	l3.5-1.462l5.5-0.485l4-1.949l2-2.191l-0.25-4.385l4.75-3.166h3.75l3.25-4.627l-2.25-2.192c0,0,0.75-3.896,1.75-5.113
	c1-1.22,3.25-4.386,3.25-4.386l-2.5-4.385l-3.25-7.307l0.25-3.166l-9-8.281v-3.653l-8.5-3.167l0.5-4.627l9-8.037l2.25-3.653
	l5.25-3.896l2.5,0.486l4,2.191l5.25-1.462c0,0,2-0.974,3.25-0.974s2.25-0.729,2.25-0.729l2.25-2.192l2.5-5.115l0.5-3.409l3.25-3.652
	h4.25c0,0,0-1.949,1.75-2.437s2.25-1.949,2.25-1.949l-0.75-2.679l0.75-1.705l3.5-2.191l3.25,0.729l3.75-3.409l3-1.218l0.25-7.551
	l-6.25-3.166l4.5-8.037h4.5l7.75-6.334l4.75-4.871l7.25,0.244l6.5-3.166l7.25-1.705l2,0.486l1.75,1.462v2.436
	c0,0,2.25,0.487,3,2.437c0.75,1.948,0.5,4.872,0.5,4.872l-1.75,0.485l0.25,6.09l2.5,2.68l-0.5,2.191l-1,2.191l2,2.192l-0.25,2.191
	l-1.75,1.461l1.5,12.422l-2.25,1.948l1.5,8.769l-7,7.795l-0.25,4.384h-1.75c0,0-1,3.41,0.5,5.846c1.5,2.437,4,4.871,4,4.871
	l1.5,4.628l-2.25,1.218l-1.5,2.437l3.75,1.948l2.25,1.705l1.25,3.896l4,0.729l4.5,1.461l3.25,1.949l5,0.976l2.723,7.471l3.527,4.951
	l3.75,3.166l4,6.089l2.5,3.652l2.25,0.487l0.25,6.819l3.25,3.41l1,3.409h8.75l3.75,4.628h4.5l2,3.409l6.5,1.22l8.25-10.961
	l5.75,9.985l3,0.976l5,2.436l3-0.244l2.75-2.19l8,7.307l4.75,3.166l0.5,2.923l-0.5,3.653l-2,4.871l-3-0.243c0,0-2,6.332-2.25,7.55
	s-1.75,2.192-3,2.68c-1.25,0.488-2.5,0.487-2.5,0.487l-4,6.576l-0.75,3.409l11.5,2.436l3.5,3.41l3.75,4.385l4.5,6.089h4.25
	c0,0-0.5,4.142,0.75,6.576c1.25,2.436,6,8.524,6,8.524l3.5,5.603v3.653l1.25,2.679l0.75,5.115l2.5,3.409l-4.5,5.603l-2.5,3.653
	l-1,3.896l5.25-0.243l1.75-2.924l5.5-0.729l3,3.41l4.75-1.705l2.5,2.436v2.679l3,2.192l2.516,0.73l1.234-2.68l1.75-5.357l2.75-3.41
	v-3.896l2.75-7.551l3.5-0.975l4-5.845l-2.5-5.115l-5.25-5.603h-2.5l-1.25-2.437l-6.25-1.218l1-2.68l-2.75-2.191l0.5-5.603
	l-6.25-5.115l1.5-4.384l3.75-0.729l0.25-2.192l3.25-0.729l0.75-4.628l-2.5-7.308l-3.25-5.115l2-3.652l1.75-3.897l8.25-5.357
	l4.5,0.73l3.5-1.462v-3.409l3.25-3.896l-4.5-11.69l0.25-2.68l5-2.436l2.75-2.681l5.25-2.19l2.5-4.871l4.75-4.385l2.75-0.976l1-3.651
	l6.75-0.488l1.25-1.948l3.25-12.665l4.25-2.923l1.5-1.948l0.5-3.409l3-1.705l3-0.244l1.5-12.908l2.75-1.705v-3.653l2.5-1.705
	l1-2.436l2.5-3.166v-5.358l2.5-2.68l0.25-6.089l1.25-5.358l-4.75-4.385l-1-5.845l2-5.114l-1.75-4.141l0.75-5.604l-5.25-4.628
	l-3.5-4.627v-7.063l4.75-0.73l2-2.679l1-11.448l1.5-3.652l9.75-4.141h11l2.25-1.219l3.5,1.705v3.166l-1.25,1.705l4.5,4.385l1,3.166
	l5,2.68l3.5-3.653l0.25-6.332l4-3.41l6.75-2.922l0.75,3.896l-0.75,5.846l1,7.308l-1.25,2.68l-1.75,15.588l2.25,2.922l2,10.23
	l-2.25,3.896l8.5,3.897l2.5,2.436l3.25,10.475l2.5,5.356l6.25,6.82l3.25-0.73l3,1.948l4,1.948l6.75,0.244l3,2.922h6l10-5.846
	l2.5,2.68l4.5,1.949l2.5-0.73l1-4.385l2.5-4.628l-2.5-1.948v-2.436l2-3.41v-2.68l3.25-3.896h3l3,2.191l1,2.437l4,1.461l4-2.923
	l5-0.975l4.25-2.922l3-3.166l3.25-1.462l6.5,0.242l3.75-1.461l0.5-2.68l6.5-2.922l6,4.871c0,0,1-2.681,2.75-3.166
	c1.75-0.488,5.75-0.976,5.75-0.976l0.5,2.922l3,4.142l4.25,2.68l2.75,0.487l0.25,5.357l-3.75,7.552l3.5,2.19c0,0,2.5,4.142,2,6.09
	s-1.25,5.847-1.25,5.847l7.25,2.436l8.75,5.114c0,0,3,2.436,2.75,5.357c-0.25,2.923-0.75,6.82-0.75,6.82l-2,3.166l4.5,3.653
	c0,0,2.75-5.358,7.75-3.897c5,1.462,6.75,1.705,6.75,1.705l4.25-1.218l10-10.229l-0.5-3.896l-3.25-1.949l-0.25-4.384l-2.5-0.975
	l0.25-3.653l-2.75-0.486l-1.75-3.41l-5.25-3.896l-1.5-4.628l-2.5-4.384l1-7.794l5.25-3.654v-7.062l5.75-3.896l4.25,0.974
	c0,0,0.25-2.191,0.25-3.896s-0.5-6.089-0.5-6.089l-3.25,0.73l-1-3.653l-1.5-2.923l-3.5-0.243l-4,1.218l-1.25,1.705l-7.5-0.243
	l-1.5-1.949h-2.75l-3.25-5.357l-4-1.704l0.5-4.872l3-3.166l-2.5-4.628V521.95l2.25-2.437l-0.25-5.846l-2-1.461l0.5-3.41l4.75-2.436
	l2.75-5.115l2.75-1.705l-2-2.191l0.5-3.166l4.75-0.486l1.25-2.68l-0.25-7.308l1.75-3.166l7.5,1.948l2.75-2.437l6.75-1.705l4.5-4.141
	l8.5,2.679l1.75-3.409l6.5-2.924l0.75,5.358l4.75,5.602l-4.75,8.769l2,6.818l3.75-3.166l7.25,3.654l1.75,2.679l0.75,4.871
	l7.25-0.729l4.25,4.141l2.5-5.846h4.25l8,4.384l5.75-2.436l9.75,6.09l4.5-3.41l1.25-4.141l-0.5-3.41l2.25-5.358l1-3.653l0.5-9.742
	l-3.75-6.089l-5.066-4.513l-9.934,0.615l-1.5,2.192l-3.25-1.461c0,0-0.75-2.437-1.25-4.142s-1.5-3.896-1.5-3.896s0.25-5.846-1-8.038
	s-2-4.385-2-4.385l4.25-5.114l2-3.41l2.25,0.244c0,0,1.5-3.167,0-5.603c-1.5-2.435-3-4.141-3-4.141v-3.41c0,0,2.75-2.436,5.25-3.654
	c2.5-1.218,5.5-4.384,5.5-4.384l-0.25-5.846l-4.5-5.358l1-5.846l3.75,0.244l2.5-3.897l1.5-7.794l2.25-6.333l2.75-3.41l1.75-1.461
	l-1-5.358l-2-5.357l1.5-5.603l2-5.602l2-3.41l1-7.063l-2-3.166l-6.75-4.871l-6.5-1.218l-3.25-2.437l-0.5-3.653l-6-5.114l-0.5-1.949
	l-3.25-1.948l-3.25,3.653h-6l-4,6.819l-1,3.167l-1,1.705l-0.5,3.41l-3,1.461l-1.25,4.385l1.5,2.191l0.25,3.653l-3.25-0.487
	l-2.25,1.949l-6-2.437l-9.25-1.704l-1.75,8.037l-2.5,6.09l1.75,3.167l-0.5,9.012l-7.25,0.244h-3.5l-3.5,4.871l-7.25,3.167
	l-0.5-2.192l-7.5,1.461l-2.25,1.948l-5,0.244v-1.949l-2.75-1.461l-0.25-3.41l-10.25-1.705l0.5-4.627l-7.25-7.551l-3.25-1.948
	l-3.632-0.569l-5.629-2.056l-2.108-5.053l-3.779,1.625l-6.241-0.343l-6.943-2.996l-9.406-5.142l-3.168-12.503l5.539-9.165
	l-0.262-4.366l-4.572-2.741v-2.742l1.406-2.996l-3.869-1.028l-2.371,2.399l-5.629,1.625l-3.429-3.338l-3.518-1.028l-4.129-2.742
	l-2.814-3.338l-5.891,1.371l-4.573-0.687l-1.667-2.398l-6.333-0.686l-3.427-2.398l-4.573-0.939l-2.371-2.74l-7.296,1.369
	l-4.223,2.653h-3.426l-4.927-3.681l-7.295,2.057l-4.131,2.311l-3.167-0.344l-1.056-2.996l-2.461-2.398l-6.242,2.398l-8.352,1.371
	L971.025,304.474L971.025,304.474z"/>
<circle fill="#67BEE7" cx="329.875" cy="393.303" r="19"/>
</svg>
