<?xml version="1.0" encoding="utf-8"?>
<!DOCTYPE svg PUBLIC "-//W3C//DTD SVG 1.1//EN" "http://www.w3.org/Graphics/SVG/1.1/DTD/svg11.dtd">
<svg version="1.1" xmlns="http://www.w3.org/2000/svg" xmlns:xlink="http://www.w3.org/1999/xlink" x="0px" y="0px" width="100px"
	 height="100px" viewBox="0 0 100 100" enable-background="new 0 0 100 100" xml:space="preserve">
<g id="prev">
	<path d="M32.148,49.981L76.564,5.564L71,0L21,50l50,50l5.564-5.564L32.148,49.981z"/>
</g>
<g id="next" display="none">
	<path d="M68.412,50L24,94.436L29.564,100l50-50l-50-50L24,5.564L68.412,50z"/>
</g>
<g id="goto" display="none">
	<path d="M86.328,47.717L67.426,66.619l5.05,5.05L100,44.145L72.476,16.621l-5.05,5.05
		l18.902,18.903H35.712c-22.709,0-33.015,9.893-35.182,27.234C0.09,71.324,0,74.132,0,79.857l0,0V87h7.143v-7.143l0,0
		c0-5.434,0.083-8.035,0.475-11.164c1.736-13.887,9.122-20.977,28.095-20.977H86.328L86.328,47.717z"/>
</g>
<g id="config" display="none">
	<path d="M22.771,66.471h-5.124V7.646h-5.882v58.824H6.641C2.977,66.471,0,69.39,0,73.074v4.439
		c0,3.728,3.043,6.604,6.641,6.604h5.124V90h5.882v-5.883h5.124c3.665,0,6.641-2.92,6.641-6.604v-4.439
		C29.412,69.346,26.369,66.471,22.771,66.471z M23.529,77.514c0,0.398-0.306,0.721-0.758,0.721H6.641
		c-0.418,0-0.758-0.316-0.758-0.721v-4.439c0-0.398,0.306-0.722,0.758-0.722h16.13c0.419,0,0.758,0.315,0.758,0.722V77.514z"/>
	<path d="M93.359,40h-5.124V7.646h-5.882V40h-5.125c-3.664,0-6.641,2.919-6.641,6.604v4.44
		c0,3.728,3.043,6.604,6.641,6.604h5.125V90h5.882V57.646h5.124c3.664,0,6.641-2.92,6.641-6.604v-4.44
		C100,42.875,96.957,40,93.359,40z M94.117,51.043c0,0.398-0.306,0.721-0.758,0.721H77.229c-0.418,0-0.758-0.316-0.758-0.721v-4.44
		c0-0.398,0.307-0.721,0.758-0.721h16.131c0.419,0,0.758,0.316,0.758,0.721V51.043z"/>
	<path d="M58.065,13.529h-5.124V7.646h-5.883v5.882h-5.124c-3.664,0-6.641,2.919-6.641,6.604v4.44
		c0,3.728,3.043,6.604,6.641,6.604h5.124V90h5.883V31.176h5.124c3.664,0,6.641-2.919,6.641-6.604v-4.44
		C64.706,16.404,61.664,13.529,58.065,13.529z M58.824,24.572c0,0.398-0.307,0.721-0.759,0.721H41.935
		c-0.418,0-0.758-0.316-0.758-0.721v-4.44c0-0.398,0.307-0.721,0.758-0.721h16.131c0.419,0,0.759,0.316,0.759,0.721V24.572z"/>
</g>
<g id="menu" display="none">
	<path d="M0,18h100v5.882H0V18L0,18z M0,47.412h100v5.882H0V47.412L0,47.412z
		 M0,76.824h100v5.882H0V76.824L0,76.824z"/>
</g>
<g id="close" display="none">
	<path d="M0,6.599L6.599,0l43.363,43.363L93.326,0l6.599,6.599L56.562,49.962
		L100,93.401l-6.599,6.598L49.962,56.562L6.599,99.924L0,93.326l43.363-43.364L0,6.599z"/>
</g>
</svg>
