<svg xmlns="http://www.w3.org/2000/svg" width="100" height="100" viewBox="0 0 100 100"><path d="M22.77 66.47h-5.12V7.65h-5.88v58.82H6.64C2.98 66.47 0 69.4 0 73.07v4.44c0 3.74 3.04 6.62 6.64 6.62h5.13V90h5.88v-5.88h5.12c3.67 0 6.64-2.92 6.64-6.6v-4.45c0-3.72-3.03-6.6-6.63-6.6zm.76 11.04c0 .4-.3.73-.76.73H6.64c-.42 0-.76-.3-.76-.72v-4.43c0-.4.3-.72.76-.72h16.13c.42 0 .76.32.76.73v4.43zM93.36 40h-5.13V7.65h-5.88V40h-5.12c-3.67 0-6.64 2.92-6.64 6.6v4.44c0 3.73 3.03 6.6 6.63 6.6h5.12V90h5.88V57.65h5.13c3.66 0 6.64-2.92 6.64-6.6V46.6c0-3.73-3.04-6.6-6.64-6.6zm.76 11.04c0 .4-.3.72-.76.72H77.23c-.42 0-.76-.3-.76-.72V46.6c0-.4.3-.72.76-.72h16.13c.42 0 .76.32.76.72v4.44zM58.06 13.53h-5.12V7.65h-5.88v5.88h-5.13c-3.66 0-6.64 2.92-6.64 6.6v4.44c0 3.73 3.04 6.6 6.63 6.6h5.13V90h5.88V31.18h5.12c3.67 0 6.65-2.92 6.65-6.6v-4.45c0-3.73-3.04-6.6-6.64-6.6zm.76 11.04c0 .4-.3.72-.76.72H41.94c-.4 0-.75-.32-.75-.73v-4.44c0-.4.3-.72.75-.72h16.14c.42 0 .76.33.76.73v4.44z"/></svg>