<?xml version="1.0" encoding="utf-8"?>
<!DOCTYPE svg PUBLIC "-//W3C//DTD SVG 1.1//EN" "http://www.w3.org/Graphics/SVG/1.1/DTD/svg11.dtd">
<svg version="1.1" xmlns="http://www.w3.org/2000/svg" xmlns:xlink="http://www.w3.org/1999/xlink" x="0px" y="0px" width="100px"
	 height="100px" viewBox="0 0 100 100" enable-background="new 0 0 100 100" xml:space="preserve">
	<path d="M22.771,66.471h-5.124V7.646h-5.882v58.824H6.641C2.977,66.471,0,69.39,0,73.074v4.439
		c0,3.728,3.043,6.604,6.641,6.604h5.124V90h5.882v-5.883h5.124c3.665,0,6.641-2.92,6.641-6.604v-4.439
		C29.412,69.346,26.369,66.471,22.771,66.471z M23.529,77.514c0,0.398-0.306,0.721-0.758,0.721H6.641
		c-0.418,0-0.758-0.316-0.758-0.721v-4.439c0-0.398,0.306-0.722,0.758-0.722h16.13c0.419,0,0.758,0.315,0.758,0.722V77.514z"/>
	<path d="M93.359,40h-5.124V7.646h-5.882V40h-5.125c-3.664,0-6.641,2.919-6.641,6.604v4.44
		c0,3.728,3.043,6.604,6.641,6.604h5.125V90h5.882V57.646h5.124c3.664,0,6.641-2.92,6.641-6.604v-4.44
		C100,42.875,96.957,40,93.359,40z M94.117,51.043c0,0.398-0.306,0.721-0.758,0.721H77.229c-0.418,0-0.758-0.316-0.758-0.721v-4.44
		c0-0.398,0.307-0.721,0.758-0.721h16.131c0.419,0,0.758,0.316,0.758,0.721V51.043z"/>
	<path d="M58.065,13.529h-5.124V7.646h-5.883v5.882h-5.124c-3.664,0-6.641,2.919-6.641,6.604v4.44
		c0,3.728,3.043,6.604,6.641,6.604h5.124V90h5.883V31.176h5.124c3.664,0,6.641-2.919,6.641-6.604v-4.44
		C64.706,16.404,61.664,13.529,58.065,13.529z M58.824,24.572c0,0.398-0.307,0.721-0.759,0.721H41.935
		c-0.418,0-0.758-0.316-0.758-0.721v-4.44c0-0.398,0.307-0.721,0.758-0.721h16.131c0.419,0,0.759,0.316,0.759,0.721V24.572z"/>
</svg>